<svg xmlns="http://www.w3.org/2000/svg" xmlns:xlink="http://www.w3.org/1999/xlink" version="1.1" id="Layer_1" x="0px" y="0px" width="100px" height="100px" viewBox="0 0 100 100" enable-background="new 0 0 100 100" xml:space="preserve">
<g>
	<path d="M48,38.43c0-2.488-0.378-4.889-1.082-7.147C43.876,21.519,34.765,14.43,24,14.43c-4.808,0-9.284,1.415-13.039,3.85   C4.364,22.556,0,29.983,0,38.43c0,12.726,9.904,23.137,22.425,23.948c-2.566,9.357-8.023,17.454-15.305,23.191   C29.868,84.521,48,65.074,48,41.237c0-0.532-0.012-1.062-0.029-1.591C47.99,39.245,48,38.839,48,38.43z"/>
	<path d="M100,38.43c0-2.488-0.379-4.889-1.082-7.147C95.877,21.519,86.766,14.43,76,14.43c-4.809,0-9.283,1.415-13.039,3.85   C56.365,22.556,52,29.983,52,38.43c0,12.726,9.904,23.137,22.426,23.948c-2.566,9.357-8.023,17.454-15.305,23.191   C81.869,84.521,100,65.074,100,41.237c0-0.532-0.012-1.062-0.029-1.591C99.99,39.245,100,38.839,100,38.43z"/>
</g>
</svg>